<svg xmlns="http://www.w3.org/2000/svg" xmlns:xlink="http://www.w3.org/1999/xlink" viewBox="0,0,256,256" width="500px" height="500px" fill-rule="nonzero"><g fill="#ffffff" fill-rule="nonzero" stroke="none" stroke-width="1" stroke-linecap="butt" stroke-linejoin="miter" stroke-miterlimit="10" stroke-dasharray="" stroke-dashoffset="0" font-family="none" font-weight="none" font-size="none" text-anchor="none" style="mix-blend-mode: normal"><g transform="scale(5.12,5.12)"><path d="M37.52344,5.95703c-1.16211,0.04004 -2.30273,0.36523 -3.33398,0.95898l-2.19141,1.26953v11.86133c0,3.86 -3.14,7 -7,7c-1.86,0 -3.61922,-0.72102 -4.94922,-2.04102c-1.33,-1.34 -2.05078,-3.09898 -2.05078,-4.95898v-11.86133l-2.18945,-1.25977c-1.65,-0.96 -3.57945,-1.22047 -5.43945,-0.73047c-1.85,0.5 -3.39938,1.69156 -4.35938,3.35156c-0.63,1.09 -0.96094,2.33008 -0.96094,3.58008c0,2.55 1.36984,4.93852 3.58984,6.22852c5.66,3.27 9.17969,9.36039 9.17969,15.90039v1.60938c0,1.92 0.75156,3.72008 2.10156,5.08008c1.32,1.32 3.07945,2.07156 4.93945,2.10156h0.11914c1.82,0 3.56992,-0.73055 4.91992,-2.06055c1.45,-1.42 2.28125,-3.39062 2.28125,-5.39062v-1.33984c0,-3.27 0.87875,-6.42969 2.46875,-9.17969c1.59,-2.75 3.88094,-5.0907 6.71094,-6.7207c1.66,-0.97 2.84961,-2.51914 3.34961,-4.36914c0.49,-1.85 0.2293,-3.77945 -0.7207,-5.43945c-0.96,-1.66 -2.50914,-2.85156 -4.36914,-3.35156c-0.69375,-0.18375 -1.39844,-0.2623 -2.0957,-0.23828zM24.99805,7.04688c-1.64,0 -3.09977,0.78953 -4.00977,2.01953c-0.62,0.83 -0.99023,1.86047 -0.99023,2.98047v8c0,1.38 0.56094,2.62906 1.46094,3.53906c0.91,0.9 2.15906,1.46094 3.53906,1.46094c2.76,0 5,-2.24 5,-5v-8c0,-1.12 -0.36828,-2.15047 -0.98828,-2.98047c-0.91,-1.23 -2.37172,-2.01953 -4.01172,-2.01953z"></path></g></g></svg>